<?xml version="1.0" standalone="no"?>
<!DOCTYPE svg PUBLIC "-//W3C//DTD SVG 20010904//EN"
 "http://www.w3.org/TR/2001/REC-SVG-20010904/DTD/svg10.dtd">
<svg version="1.0" xmlns="http://www.w3.org/2000/svg"
 width="1024.000000pt" height="1024.000000pt" viewBox="0 0 1024.000000 1024.000000"
 preserveAspectRatio="xMidYMid meet">

<g transform="translate(0.000000,1024.000000) scale(0.100000,-0.100000)"
fill="#000000" stroke="none">
<path d="M4900 7863 c-221 -21 -381 -49 -562 -99 -648 -177 -1194 -562 -1575
-1109 -282 -405 -443 -862 -484 -1377 -31 -383 36 -827 177 -1186 143 -362
337 -656 624 -943 233 -234 424 -373 715 -519 322 -163 672 -266 1019 -301
148 -14 462 -6 601 16 308 49 616 163 841 311 137 90 318 277 427 440 48 72
87 135 87 139 0 4 16 39 35 77 49 96 119 293 149 418 65 273 69 618 10 909
-32 161 -121 426 -186 555 l-51 101 -13 -51 c-37 -147 -160 -427 -261 -596
-219 -367 -551 -721 -888 -948 -266 -178 -568 -320 -822 -384 -172 -44 -293
-58 -488 -58 -262 1 -473 43 -660 132 -86 41 -237 141 -312 207 -124 108 -257
288 -347 471 -151 302 -209 566 -209 937 0 258 31 453 113 710 168 522 578
1002 1073 1254 254 129 559 187 854 162 777 -66 1565 -610 2084 -1437 230
-368 405 -846 449 -1231 13 -113 13 -356 0 -502 -23 -252 -111 -558 -228 -793
l-29 -58 48 41 c63 53 198 197 235 251 16 24 58 81 93 128 34 47 70 101 79
120 9 19 28 53 42 75 61 94 178 359 228 515 210 657 183 1297 -80 1910 -260
608 -704 1080 -1318 1402 -310 163 -700 276 -1060 308 -107 9 -330 11 -410 3z"/>
</g>
</svg>
